<svg width="58" height="68" viewBox="0 0 58 68" fill="none" xmlns="http://www.w3.org/2000/svg">
<path d="M8.7 26.0654V43.556C8.7 45.8821 6.8724 47.7399 4.54635 47.7399C2.23542 47.7399 0 45.8669 0 43.556V26.0654C0 23.7847 2.23542 21.9117 4.54635 21.9117C6.82708 21.9117 8.7 23.7847 8.7 26.0654ZM10.3313 49.7789C10.3313 52.256 12.325 54.2498 14.8021 54.2498H17.8078L17.8531 63.4784C17.8531 69.0518 26.1906 69.0065 26.1906 63.4784V54.2498H31.8094V63.4784C31.8094 69.0216 40.1922 69.0367 40.1922 63.4784V54.2498H43.2432C45.6901 54.2498 47.6839 52.256 47.6839 49.7789V22.682H10.3313V49.7789ZM47.7896 21.2169H10.1651C10.1651 14.7524 14.0318 9.13361 19.7714 6.2034L16.8865 0.87163C16.4635 0.131526 17.5359 -0.336703 17.8984 0.297672L20.8286 5.67476C26.1 3.33361 32.1568 3.45444 37.1865 5.67476L40.1016 0.312776C40.4792 -0.336703 41.5365 0.14663 41.1135 0.886734L38.2286 6.2034C43.9229 9.13361 47.7896 14.7524 47.7896 21.2169ZM22.0068 12.8341C22.0068 11.9732 21.312 11.2482 20.4208 11.2482C19.5599 11.2482 18.8802 11.9732 18.8802 12.8341C18.8802 13.6951 19.575 14.4201 20.4208 14.4201C21.312 14.4201 22.0068 13.6951 22.0068 12.8341ZM39.1349 12.8341C39.1349 11.9732 38.4401 11.2482 37.5943 11.2482C36.7031 11.2482 36.0083 11.9732 36.0083 12.8341C36.0083 13.6951 36.7031 14.4201 37.5943 14.4201C38.4401 14.4201 39.1349 13.6951 39.1349 12.8341ZM53.4536 21.9117C51.1729 21.9117 49.3 23.7393 49.3 26.0654V43.556C49.3 45.8821 51.1729 47.7399 53.4536 47.7399C55.7797 47.7399 58 45.8669 58 43.556V26.0654C58 23.7393 55.7646 21.9117 53.4536 21.9117Z" fill="black"/>
</svg>
