<svg width="64" height="74" viewBox="0 0 64 74" fill="none" xmlns="http://www.w3.org/2000/svg">
<path d="M46.2229 7.31429C43.2514 10.0714 40.5686 12.97 38.1914 15.8814C34.2971 10.5171 29.4686 5.07571 24 0C9.96286 13.0243 0 29.9943 0 40.2286C0 58.4071 14.3271 73.1429 32 73.1429C49.6729 73.1429 64 58.4071 64 40.2286C64 32.6186 56.5743 16.9229 46.2229 7.31429ZM43.4414 55.9786C40.3471 58.1443 36.5314 59.4286 32.4086 59.4286C22.1014 59.4286 13.7143 52.6086 13.7143 41.5357C13.7143 36.02 17.1871 31.16 24.1129 22.8571C25.1029 23.9971 38.2314 40.7629 38.2314 40.7629L46.6071 31.2086C47.1986 32.1871 47.7371 33.1443 48.2171 34.0614C52.1243 41.5171 50.4757 51.0571 43.4414 55.9786Z" fill="black"/>
</svg>
