<svg width="76" height="67" viewBox="0 0 76 67" fill="none" xmlns="http://www.w3.org/2000/svg">
<path d="M62.0766 21.5513C61.275 21.2841 60.4734 21.0317 59.6719 20.7942C59.8055 20.245 59.9242 19.6958 60.043 19.1466C61.8688 10.2997 60.6664 3.18955 56.6141 0.844237C52.7102 -1.39717 46.3422 0.9333 39.9 6.54424C39.2617 7.09345 38.6383 7.67236 38.0445 8.25127C37.6437 7.86533 37.2281 7.47939 36.8125 7.1083C30.0586 1.11142 23.2898 -1.41201 19.2375 0.948144C15.3484 3.20439 14.1906 9.89892 15.8234 18.2708C15.9867 19.102 16.1648 19.9184 16.3727 20.7497C15.4227 21.0169 14.4875 21.3138 13.6117 21.6255C5.68516 24.3716 0 28.7059 0 33.1888C0 37.82 6.05625 42.4661 14.2945 45.2864C14.9625 45.5091 15.6305 45.7317 16.3133 45.9247C16.0906 46.8153 15.8977 47.6911 15.7195 48.5966C14.1609 56.8348 15.3781 63.3661 19.2672 65.6075C23.275 67.9231 30.0141 65.5481 36.575 59.8036C37.0945 59.3434 37.6141 58.8684 38.1336 58.3638C38.7867 59.002 39.4695 59.6106 40.1523 60.2044C46.5055 65.6669 52.7844 67.8786 56.6586 65.6372C60.6664 63.3216 61.9727 56.3005 60.2805 47.7505C60.1469 47.0973 59.9984 46.4294 59.8352 45.7466C60.3102 45.613 60.7703 45.4645 61.2305 45.3161C69.7953 42.4809 76 37.8942 76 33.1888C76 28.6911 70.1516 24.327 62.0766 21.5513ZM41.993 8.94892C47.5148 4.13955 52.6656 2.25439 55.0109 3.60517C57.5195 5.04502 58.4844 10.8638 56.9109 18.5083C56.807 19.013 56.7031 19.5028 56.5695 19.9927C53.2742 19.2505 49.9344 18.7161 46.5797 18.4192C44.65 15.6583 42.5422 13.0161 40.2563 10.5372C40.8352 9.98798 41.3992 9.46845 41.993 8.94892ZM24.8187 40.8927C25.5758 42.1841 26.3477 43.4755 27.1641 44.7372C24.8484 44.4848 22.5477 44.1138 20.2766 43.6239C20.9297 41.4864 21.7461 39.2747 22.6961 37.0184C23.3789 38.3247 24.0766 39.6161 24.8187 40.8927ZM20.3211 23.0356C22.4586 22.5606 24.7297 22.1747 27.0898 21.8778C26.3031 23.1099 25.5313 24.3716 24.8039 25.6481C24.0766 26.9099 23.3641 28.2013 22.6961 29.5075C21.7609 27.2958 20.9742 25.1286 20.3211 23.0356ZM24.3883 33.263C25.368 31.2145 26.4367 29.2106 27.5648 27.2364C28.693 25.2622 29.9102 23.3474 31.1867 21.4622C33.4133 21.2989 35.6844 21.2099 38 21.2099C40.3156 21.2099 42.6016 21.2989 44.8133 21.4622C46.075 23.3325 47.2773 25.2474 48.4203 27.2067C49.5633 29.1661 50.632 31.17 51.6414 33.2036C50.6469 35.252 49.5781 37.2708 48.4352 39.2598C47.307 41.2341 46.1047 43.1489 44.843 45.0489C42.6313 45.2122 40.3305 45.2864 38 45.2864C35.6695 45.2864 33.4133 45.2122 31.2312 45.0786C29.9398 43.1934 28.7227 41.2638 27.5797 39.2895C26.4367 37.3153 25.3828 35.3114 24.3883 33.263ZM51.1961 40.863C51.9531 39.5567 52.6656 38.2356 53.3633 36.8997C54.3133 39.052 55.1445 41.2341 55.8719 43.4755C53.5711 43.995 51.2406 44.3958 48.8953 44.663C49.6969 43.4161 50.4539 42.1395 51.1961 40.863ZM53.3336 29.5075C52.6359 28.2013 51.9234 26.895 51.1812 25.6184C50.4539 24.3567 49.6969 23.1099 48.9102 21.8778C51.3 22.1747 53.5859 22.5755 55.7234 23.0653C55.0406 25.2622 54.2391 27.3997 53.3336 29.5075ZM38.0297 12.8083C39.5883 14.5005 41.0578 16.2817 42.4234 18.1224C39.4844 17.9888 36.5305 17.9888 33.5914 18.1224C35.0461 16.2075 36.5453 14.4263 38.0297 12.8083ZM20.8109 3.70908C23.3047 2.25439 28.8414 4.33252 34.675 9.49814C35.0461 9.8247 35.4172 10.181 35.8031 10.5372C33.5023 13.0161 31.3797 15.6583 29.4352 18.4192C26.0805 18.7161 22.7555 19.2356 19.4602 19.963C19.2672 19.2059 19.1039 18.4341 18.9406 17.6622C17.5453 10.4778 18.4656 5.05986 20.8109 3.70908ZM17.1742 42.8372C16.5508 42.6591 15.9422 42.4661 15.3336 42.2583C12.1719 41.2638 8.57969 39.6903 5.98203 37.627C4.48281 36.588 3.47344 34.9849 3.19141 33.1888C3.19141 30.4724 7.88203 26.9989 14.6508 24.6388C15.4969 24.3419 16.3578 24.0747 17.2188 23.8224C18.2281 27.0434 19.4453 30.2052 20.8555 33.263C19.4305 36.3653 18.1984 39.5716 17.1742 42.8372ZM34.482 57.3841C32.0328 59.6255 29.1977 61.4067 26.1102 62.6239C24.4625 63.4106 22.5625 63.4848 20.8703 62.8169C18.5102 61.4513 17.5305 56.2114 18.8664 49.1606C19.0297 48.3294 19.2078 47.4981 19.4156 46.6817C22.7406 47.3942 26.0953 47.8841 29.4945 48.1364C31.4539 50.9122 33.6062 53.5692 35.907 56.063C35.432 56.5231 34.957 56.9684 34.482 57.3841ZM38.1187 53.777C36.6047 52.1442 35.0906 50.3333 33.6211 48.3888C35.0461 48.4481 36.5156 48.4778 38 48.4778C39.5289 48.4778 41.0281 48.4481 42.5125 48.3739C41.1469 50.2591 39.6773 52.0552 38.1187 53.777ZM57.5195 58.2302C57.3859 60.0411 56.4953 61.7333 55.0703 62.8762C52.7102 64.2419 47.6781 62.4606 42.2453 57.7997C41.6219 57.2653 40.9984 56.6864 40.3602 56.0927C42.6312 53.5841 44.7242 50.927 46.6242 48.1364C50.0234 47.8544 53.4078 47.3348 56.7477 46.5778C56.8961 47.1864 57.0297 47.795 57.1484 48.3888C57.8758 51.595 57.9945 54.9348 57.5195 58.2302ZM60.2211 42.2731C59.8055 42.4067 59.3898 42.5403 58.9594 42.6591C57.9203 39.4231 56.6438 36.2614 55.1742 33.1888C56.5992 30.1606 57.8016 27.0434 58.8109 23.852C59.5828 24.0747 60.325 24.3122 61.0375 24.5497C67.9547 26.9247 72.8086 30.4575 72.8086 33.1591C72.8086 36.0684 67.6281 39.8239 60.2211 42.2731ZM38 40.0466C41.7555 40.0466 44.7984 37.0036 44.7984 33.2481C44.7984 29.4927 41.7555 26.4497 38 26.4497C34.2445 26.4497 31.2016 29.4927 31.2016 33.2481C31.2016 37.0036 34.2445 40.0466 38 40.0466Z" fill="black"/>
</svg>
