<svg width="493" height="330" viewBox="0 0 493 330" fill="none" xmlns="http://www.w3.org/2000/svg">
<g clip-path="url(#clip0_677_4)">
<rect width="359.353" height="233.579" rx="20" transform="matrix(0.83081 -0.556556 0.83081 0.556556 0 200)" fill="url(#paint0_linear_677_4)"/>
<path d="M361.558 102.499L530.888 133.77L433.683 198.887L361.558 102.499Z" fill="#FF605F"/>
<g filter="url(#filter0_dd_677_4)">
<path d="M186.102 75.332L332.324 -22.6218L548.335 122.083L480.455 167.555L186.102 75.332Z" fill="#FF6867"/>
</g>
<ellipse cx="10.2857" cy="11.5" rx="10.2857" ry="11.5" transform="matrix(0.83081 -0.556556 0.83081 0.556556 424.544 112.621)" fill="#FF0000" fill-opacity="0.5"/>
<ellipse cx="10.2857" cy="11.5" rx="10.2857" ry="11.5" transform="matrix(0.83081 -0.556556 0.83081 0.556556 434.039 106.26)" fill="#FFE600" fill-opacity="0.5"/>
<path d="M276.161 56.4088L282.475 52.179L296.3 68.2968L287.626 74.1073L263.533 64.8684L269.88 60.6164L287.759 68.4972L287.925 68.3859L276.161 56.4088ZM284.181 51.0366L290.162 47.0294L309.105 59.7189L303.123 63.7261L284.181 51.0366ZM304.094 44.5533C304.56 44.865 305.158 44.954 305.889 44.8204C306.642 44.672 307.683 44.3603 309.013 43.8854C310.63 43.3363 312.015 42.9281 313.167 42.661C314.341 42.379 315.615 42.3122 316.988 42.4606C318.384 42.5942 319.725 43.0914 321.01 43.9522C325.13 46.7127 324.51 49.8888 319.149 53.4804C318.262 54.0741 317.099 54.7494 315.659 55.5063C314.241 56.2484 312.89 56.8866 311.605 57.4209C311.184 57.0795 310.597 56.5675 309.844 55.8848C309.09 55.1724 308.559 54.6232 308.248 54.2374C309.135 53.7921 310.431 53.102 312.137 52.167C313.865 51.2171 315.127 50.475 315.925 49.9407C316.39 49.6291 316.634 49.4213 316.656 49.3174C316.7 49.169 316.656 49.0057 316.523 48.8276C316.39 48.6199 316.246 48.464 316.091 48.3601C315.648 48.0633 315.105 47.9817 314.463 48.1152C313.798 48.234 312.79 48.5234 311.439 48.9835C309.844 49.5474 308.448 49.963 307.251 50.2302C306.055 50.4973 304.737 50.5492 303.297 50.386C301.857 50.2227 300.45 49.681 299.076 48.7608C298.101 48.1078 297.37 47.3212 296.883 46.4011C296.373 45.466 296.185 44.7314 296.318 44.1971C296.429 43.7964 296.927 43.1508 297.813 42.2603C298.7 41.3698 299.63 40.598 300.605 39.945C303.086 38.2828 305.346 37.0806 307.384 36.3385C307.805 36.6502 308.337 37.1103 308.979 37.7188C309.644 38.3124 310.231 38.869 310.741 39.3884L309.943 39.8782C306.864 41.674 304.925 42.8391 304.128 43.3734C303.795 43.596 303.618 43.7296 303.596 43.7741C303.552 43.8632 303.574 43.9819 303.662 44.1303C303.751 44.2787 303.895 44.4197 304.094 44.5533ZM336.385 35.8788L330.868 39.5744L334.025 43.025L327.91 47.1213L315.083 30.3355L322.892 25.1039L347.684 33.8752L341.536 37.9938L336.385 35.8788ZM322.892 30.5804L327.943 36.5912L331.898 33.942L323.025 30.4914L322.892 30.5804Z" fill="#3E68FF"/>
<path d="M167.491 273.042L168.355 273.62L166.86 274.622L169.136 276.147L168.222 276.759L165.946 275.234L161.443 278.251L160.662 277.728L155.743 270.782L156.691 270.148L161.609 276.982L165.082 274.656L161.592 272.318L162.506 271.706L165.996 274.043L167.491 273.042ZM168.688 267.209C169.684 266.541 170.742 266.218 171.861 266.24C172.991 266.255 174.093 266.623 175.168 267.342C176.242 268.062 176.802 268.845 176.846 269.691C176.89 270.522 176.364 271.305 175.268 272.04C174.392 272.626 173.157 273.142 171.562 273.587L171.03 272.808C172.504 272.429 173.634 271.977 174.42 271.45C175.207 270.923 175.567 270.348 175.5 269.725C175.423 269.094 174.985 268.511 174.187 267.977C173.39 267.443 172.581 267.168 171.762 267.153C170.953 267.131 170.183 267.365 169.452 267.855C168.732 268.337 168.316 269.046 168.206 269.981L167.408 270.27L162.124 266.508L167.674 262.79L168.588 263.402L163.869 266.563L167.358 269.057C167.547 268.292 167.99 267.676 168.688 267.209ZM176.979 261.677C178.054 260.957 179.156 260.597 180.286 260.597C181.416 260.597 182.529 260.964 183.625 261.699C184.711 262.426 185.287 263.198 185.354 264.014C185.409 264.823 184.91 265.58 183.858 266.285C182.817 266.983 181.681 267.32 180.452 267.298C179.233 267.268 178.015 266.845 176.796 266.029C175.578 265.213 174.703 264.396 174.171 263.58C173.65 262.756 173.434 261.899 173.523 261.009C173.6 260.111 173.96 259.031 174.603 257.77L175.783 258.07C175.063 259.517 174.719 260.653 174.752 261.476C174.786 262.285 175.146 263.083 175.832 263.87C175.832 262.92 176.215 262.189 176.979 261.677ZM182.629 262.322C181 261.231 179.405 261.209 177.843 262.256C177.189 262.693 176.863 263.224 176.863 263.847C176.852 264.463 177.184 264.998 177.86 265.45C179.699 266.682 181.41 266.767 182.994 265.706C183.758 265.194 184.102 264.645 184.024 264.059C183.947 263.473 183.481 262.894 182.629 262.322ZM188.079 257.914C187.048 258.605 185.968 258.95 184.838 258.95C183.697 258.942 182.612 258.593 181.582 257.903C180.54 257.206 180.003 256.445 179.97 255.621C179.937 254.798 180.419 254.052 181.416 253.384C182.424 252.709 183.515 252.386 184.689 252.416C185.863 252.445 186.993 252.824 188.079 253.551C189.574 254.553 190.615 255.599 191.202 256.69C191.79 257.781 192.144 259.154 192.266 260.809L190.97 261.432C190.881 259.977 190.698 258.853 190.422 258.059C190.156 257.258 189.729 256.497 189.142 255.777C189.142 256.727 188.788 257.439 188.079 257.914ZM182.496 257.224C184.124 258.315 185.697 258.352 187.215 257.336C187.868 256.898 188.184 256.382 188.162 255.788C188.151 255.187 187.802 254.657 187.115 254.197C185.387 253.039 183.764 252.968 182.246 253.985C181.526 254.467 181.194 255.002 181.249 255.588C181.316 256.167 181.731 256.712 182.496 257.224ZM201.77 247.54L200.906 247.117L201.92 246.193C202.684 245.503 203.111 244.898 203.199 244.379C203.288 243.845 203.017 243.366 202.385 242.943C201.754 242.52 201.095 242.346 200.408 242.42C199.721 242.479 199.067 242.717 198.447 243.132C197.827 243.548 197.206 244.29 196.586 245.359L195.489 245.047C195.711 244.616 196.032 244.149 196.453 243.644C196.874 243.14 197.278 242.758 197.666 242.498C198.575 241.889 199.511 241.552 200.474 241.485C201.449 241.411 202.38 241.67 203.266 242.264C203.886 242.68 204.246 243.091 204.346 243.5C204.446 243.893 204.351 244.379 204.063 244.958L204.097 244.98C205.747 244.26 207.331 244.409 208.849 245.425C210.898 246.798 210.776 248.253 208.483 249.789C207.564 250.405 206.284 250.965 204.645 251.47L204.097 250.701C205.648 250.241 206.811 249.752 207.586 249.232C208.361 248.713 208.788 248.182 208.866 247.64C208.943 247.099 208.611 246.579 207.869 246.082C207.126 245.585 206.395 245.347 205.675 245.37C204.944 245.384 204.18 245.659 203.382 246.193L201.77 247.54ZM217.34 239.648L218.204 240.227L216.708 241.229L218.985 242.754L218.071 243.366L215.794 241.841L211.291 244.858L210.511 244.334L205.592 237.389L206.539 236.754L211.458 243.589L214.93 241.262L211.441 238.925L212.355 238.313L215.844 240.65L217.34 239.648ZM218.536 233.816C219.533 233.148 220.591 232.825 221.71 232.847C222.84 232.862 223.942 233.229 225.016 233.949C226.091 234.669 226.65 235.452 226.695 236.298C226.739 237.129 226.213 237.912 225.116 238.646C224.241 239.233 223.006 239.748 221.411 240.194L220.879 239.415C222.352 239.036 223.482 238.583 224.269 238.057C225.055 237.53 225.415 236.955 225.349 236.331C225.271 235.7 224.834 235.118 224.036 234.584C223.239 234.049 222.43 233.775 221.61 233.76C220.801 233.738 220.032 233.971 219.3 234.461C218.58 234.944 218.165 235.652 218.054 236.587L217.257 236.877L211.973 233.114L217.523 229.396L218.436 230.009L213.717 233.17L217.207 235.663C217.395 234.899 217.838 234.283 218.536 233.816ZM236.847 230.565L230.616 234.739L229.769 234.172L232.61 232.268L223.97 226.48L222.491 229.163L221.228 228.829L223.006 225.701L223.887 225.111L233.59 231.612L236 229.998L236.847 230.565ZM243.992 222.083C242.685 221.208 242.397 220.228 243.128 219.145C241.588 219.494 240.254 219.289 239.124 218.533C238.282 217.969 237.872 217.33 237.894 216.618C237.916 215.891 238.426 215.193 239.423 214.525C240.431 213.85 241.472 213.509 242.547 213.501C243.61 213.486 244.563 213.761 245.405 214.325C246.59 215.119 246.878 216.009 246.269 216.996C247.908 216.492 249.392 216.685 250.722 217.575C251.619 218.176 252.04 218.852 251.985 219.601C251.929 220.336 251.359 221.067 250.273 221.794C249.187 222.521 248.096 222.903 247 222.94C245.892 222.97 244.889 222.684 243.992 222.083ZM245.155 218.343C244.38 218.863 243.976 219.393 243.942 219.935C243.92 220.469 244.247 220.963 244.923 221.415C245.598 221.868 246.324 222.08 247.099 222.05C247.875 222.02 248.65 221.746 249.426 221.226C250.201 220.707 250.611 220.187 250.655 219.668C250.7 219.134 250.389 218.644 249.725 218.199C249.049 217.746 248.312 217.527 247.515 217.542C246.717 217.557 245.931 217.824 245.155 218.343ZM240.27 215.093C239.528 215.59 239.151 216.08 239.14 216.562C239.14 217.037 239.445 217.479 240.054 217.887C240.663 218.295 241.339 218.51 242.081 218.533C242.823 218.54 243.566 218.295 244.308 217.798C245.061 217.293 245.432 216.8 245.421 216.317C245.41 215.835 245.094 215.386 244.474 214.971C243.843 214.548 243.167 214.34 242.447 214.347C241.738 214.347 241.012 214.596 240.27 215.093ZM254.543 213.39C253.513 214.08 252.433 214.425 251.303 214.425C250.162 214.418 249.077 214.069 248.047 213.379C247.005 212.681 246.468 211.921 246.435 211.097C246.402 210.273 246.883 209.527 247.88 208.86C248.888 208.184 249.98 207.861 251.154 207.891C252.328 207.921 253.458 208.299 254.543 209.027C256.039 210.028 257.08 211.075 257.667 212.166C258.254 213.256 258.609 214.629 258.731 216.284L257.435 216.907C257.346 215.453 257.163 214.329 256.886 213.535C256.62 212.733 256.194 211.973 255.607 211.253C255.607 212.203 255.252 212.915 254.543 213.39ZM248.96 212.7C250.589 213.791 252.162 213.828 253.679 212.811C254.333 212.373 254.649 211.858 254.627 211.264C254.615 210.663 254.267 210.132 253.58 209.672C251.852 208.515 250.229 208.444 248.711 209.461C247.991 209.943 247.659 210.477 247.714 211.064C247.781 211.642 248.196 212.188 248.96 212.7ZM263.583 206.489C263.561 207.038 263.522 207.576 263.466 208.103C263.311 209.453 263.455 210.477 263.898 211.175L269.033 207.735L269.98 208.37L263.749 212.544L262.935 211.999C262.569 211.487 262.331 210.919 262.22 210.295C262.12 209.665 262.098 209.078 262.154 208.537L262.287 206.934C262.353 205.732 261.916 204.815 260.974 204.185C260.32 203.747 259.6 203.524 258.814 203.517C258.016 203.502 257.324 203.691 256.737 204.084C256.161 204.47 255.707 205.272 255.374 206.489L254.211 206.333C254.521 204.982 255.097 204.025 255.939 203.461C256.792 202.89 257.767 202.6 258.864 202.593C259.96 202.571 261.029 202.908 262.071 203.606C263.101 204.296 263.605 205.257 263.583 206.489ZM275.496 200.689L276.361 201.268L274.865 202.27L277.141 203.795L276.228 204.407L273.951 202.882L269.448 205.899L268.667 205.376L263.749 198.43L264.696 197.795L269.614 204.63L273.087 202.303L269.598 199.966L270.512 199.354L274.001 201.691L275.496 200.689ZM283.14 192.475C281.19 191.169 280.049 190.07 279.717 189.18C279.385 188.289 279.778 187.469 280.897 186.72C282.027 185.963 283.256 185.696 284.586 185.918C285.915 186.141 287.554 186.905 289.504 188.211C291.443 189.51 292.583 190.608 292.927 191.506C293.27 192.404 292.877 193.231 291.747 193.988C290.628 194.738 289.399 194.998 288.058 194.768C286.718 194.538 285.078 193.773 283.14 192.475ZM288.158 193.81C289.177 194.077 290.086 193.944 290.883 193.41C291.681 192.875 291.88 192.267 291.481 191.584C291.082 190.901 290.063 190.011 288.424 188.913C286.773 187.807 285.455 187.124 284.469 186.864C283.483 186.605 282.586 186.746 281.777 187.287C280.969 187.829 280.758 188.438 281.146 189.113C281.534 189.773 282.547 190.653 284.187 191.751C285.826 192.849 287.15 193.536 288.158 193.81ZM291.448 186.909C289.498 185.603 288.357 184.505 288.025 183.614C287.693 182.724 288.086 181.904 289.205 181.154C290.335 180.397 291.564 180.13 292.894 180.353C294.223 180.575 295.862 181.34 297.812 182.646C299.751 183.944 300.892 185.043 301.235 185.941C301.578 186.839 301.185 187.666 300.055 188.423C298.936 189.172 297.707 189.432 296.366 189.202C295.026 188.972 293.387 188.208 291.448 186.909ZM296.466 188.245C297.485 188.512 298.394 188.378 299.191 187.844C299.989 187.31 300.188 186.701 299.789 186.019C299.391 185.336 298.371 184.445 296.732 183.347C295.081 182.241 293.763 181.559 292.777 181.299C291.791 181.039 290.894 181.18 290.086 181.722C289.277 182.264 289.066 182.872 289.454 183.547C289.842 184.208 290.855 185.087 292.495 186.185C294.134 187.284 295.458 187.97 296.466 188.245ZM305.123 178.661C305.101 179.21 305.062 179.748 305.007 180.275C304.852 181.625 304.996 182.65 305.439 183.347L310.573 179.908L311.52 180.542L305.289 184.716L304.475 184.171C304.11 183.659 303.871 183.091 303.761 182.468C303.661 181.837 303.639 181.251 303.694 180.709L303.827 179.106C303.894 177.904 303.456 176.987 302.514 176.357C301.861 175.919 301.141 175.696 300.354 175.689C299.557 175.674 298.864 175.863 298.277 176.257C297.701 176.642 297.247 177.444 296.915 178.661L295.752 178.505C296.062 177.154 296.638 176.197 297.48 175.633C298.333 175.062 299.308 174.772 300.404 174.765C301.501 174.743 302.57 175.08 303.611 175.778C304.641 176.468 305.145 177.429 305.123 178.661ZM319.928 174.91L313.697 179.084L312.85 178.516L315.691 176.613L307.051 170.825L305.572 173.507L304.309 173.173L306.087 170.045L306.968 169.455L316.671 175.956L319.081 174.342L319.928 174.91Z" fill="white"/>
<path d="M188.388 296.423L187.391 295.755L188.693 294.883L181.382 289.985L180.08 290.858L179.083 290.19L182.712 287.759C183.935 286.939 185.189 286.515 186.474 286.485C187.767 286.45 189.057 286.862 190.342 287.723L192.07 288.881C193.364 289.747 193.984 290.614 193.931 291.481C193.878 292.336 193.24 293.173 192.017 293.992L188.388 296.423ZM189.797 294.126L191.006 293.315C191.91 292.71 192.371 292.104 192.389 291.499C192.407 290.893 191.95 290.279 191.02 289.655L189.199 288.435C188.25 287.8 187.329 287.491 186.434 287.509C185.539 287.527 184.639 287.839 183.735 288.444L182.526 289.255L189.797 294.126ZM197.641 290.225L188.336 283.991L194.065 280.153L195.075 280.83L190.463 283.92L193.573 286.004L197.814 283.163L198.824 283.84L194.583 286.68L197.747 288.8L202.426 285.665L203.436 286.342L197.641 290.225ZM207.205 283.818L195.095 279.463L196.251 278.688L207.417 282.767L207.59 282.651L201.502 275.171L202.659 274.396L209.159 282.509L207.205 283.818ZM213.361 279.693L204.056 273.46L209.785 269.622L210.796 270.299L206.183 273.389L209.294 275.473L213.534 272.632L214.544 273.309L210.304 276.149L213.468 278.269L218.147 275.134L219.157 275.811L213.361 279.693ZM224.135 272.726C223.461 273.177 222.739 273.5 221.968 273.696C221.197 273.892 220.417 273.934 219.629 273.821C218.84 273.696 218.082 273.39 217.355 272.904L217.076 272.717L218.18 271.978L218.459 272.165C219.23 272.681 220.032 272.916 220.865 272.868C221.689 272.815 222.456 272.55 223.164 272.076C223.891 271.589 224.281 271.108 224.334 270.633C224.387 270.158 224.166 269.754 223.67 269.422C223.324 269.19 222.961 269.066 222.58 269.048C222.207 269.024 221.804 269.075 221.37 269.199C220.927 269.318 220.448 269.484 219.934 269.698L219.07 270.045C218.388 270.312 217.737 270.517 217.116 270.66C216.496 270.802 215.902 270.844 215.335 270.784C214.768 270.713 214.223 270.502 213.7 270.152C213.177 269.802 212.854 269.413 212.73 268.986C212.614 268.552 212.69 268.11 212.955 267.659C213.23 267.202 213.678 266.765 214.298 266.35C214.927 265.928 215.601 265.625 216.319 265.441C217.036 265.245 217.75 265.195 218.459 265.29C219.168 265.373 219.841 265.628 220.479 266.056L221.038 266.43L219.934 267.169L219.376 266.795C218.924 266.492 218.463 266.314 217.994 266.261C217.533 266.201 217.067 266.24 216.598 266.376C216.137 266.507 215.694 266.715 215.268 267C214.657 267.409 214.303 267.831 214.205 268.264C214.099 268.692 214.294 269.072 214.79 269.404C215.118 269.624 215.463 269.748 215.827 269.778C216.19 269.808 216.584 269.769 217.01 269.662C217.426 269.549 217.887 269.389 218.392 269.181L219.256 268.834C219.912 268.549 220.555 268.332 221.184 268.184C221.813 268.024 222.429 267.973 223.032 268.033C223.625 268.086 224.197 268.297 224.746 268.665C225.296 269.033 225.637 269.446 225.77 269.903C225.903 270.36 225.832 270.835 225.557 271.328C225.282 271.808 224.808 272.274 224.135 272.726ZM229.004 269.215L219.699 262.981L220.815 262.233L224.949 265.003L229.31 262.082L225.175 259.312L226.292 258.564L235.597 264.798L234.481 265.546L230.32 262.758L225.96 265.679L230.12 268.467L229.004 269.215ZM248.105 256.668C246.997 257.41 245.796 257.787 244.502 257.799C243.2 257.805 241.932 257.395 240.701 256.57L238.574 255.146C237.342 254.32 236.735 253.474 236.753 252.608C236.761 251.735 237.32 250.928 238.428 250.185C239.526 249.449 240.674 249.09 241.87 249.108C243.076 249.12 244.21 249.482 245.273 250.194L245.34 250.239L244.237 250.978L244.13 250.907C243.43 250.438 242.668 250.183 241.844 250.141C241.02 250.088 240.213 250.325 239.424 250.853C238.636 251.382 238.264 251.958 238.308 252.581C238.343 253.198 238.795 253.798 239.664 254.38L241.844 255.84C242.712 256.422 243.612 256.728 244.542 256.757C245.464 256.781 246.319 256.529 247.108 256C247.897 255.472 248.255 254.935 248.185 254.389C248.114 253.831 247.728 253.317 247.028 252.848L246.815 252.706L247.919 251.966L248.091 252.082C249.155 252.795 249.696 253.555 249.713 254.362C249.74 255.163 249.204 255.932 248.105 256.668ZM253.084 253.083L243.779 246.85L244.896 246.102L249.03 248.871L253.39 245.95L249.256 243.181L250.373 242.433L259.678 248.666L258.561 249.414L254.4 246.627L250.04 249.548L254.201 252.335L253.084 253.083ZM261.077 247.729L254.643 239.572L256.61 238.254L268.787 242.564L267.63 243.339L264.559 242.244L260.598 244.897L262.233 246.954L261.077 247.729ZM259.867 244.034L263.257 241.763L256.398 239.305L256.212 239.43L259.867 244.034ZM270.181 241.63L260.876 235.397L263.043 233.945L274.887 237.534L275.059 237.418L266.459 231.657L267.562 230.918L276.867 237.151L274.7 238.603L262.856 234.996L262.67 235.121L271.284 240.891L270.181 241.63ZM278.57 236.011L277.573 235.343L278.875 234.47L271.564 229.572L270.261 230.445L269.264 229.777L272.893 227.346C274.116 226.527 275.37 226.103 276.655 226.073C277.949 226.037 279.239 226.45 280.524 227.311L282.252 228.468C283.546 229.335 284.166 230.202 284.113 231.068C284.06 231.923 283.421 232.76 282.199 233.58L278.57 236.011ZM279.979 233.713L281.188 232.903C282.092 232.297 282.553 231.692 282.571 231.086C282.588 230.481 282.132 229.866 281.202 229.243L279.38 228.023C278.432 227.388 277.511 227.079 276.615 227.097C275.72 227.115 274.821 227.426 273.917 228.032L272.707 228.842L279.979 233.713ZM287.823 229.812L278.518 223.579L282.279 221.059C282.855 220.673 283.463 220.403 284.101 220.248C284.739 220.082 285.368 220.04 285.988 220.124C286.6 220.201 287.162 220.412 287.676 220.756L287.823 220.854C288.434 221.263 288.771 221.685 288.833 222.118C288.895 222.552 288.789 222.943 288.514 223.294L288.7 223.418C289.028 223.211 289.396 223.107 289.803 223.107C290.211 223.095 290.614 223.223 291.013 223.49L294.137 225.582L293.033 226.321L290.043 224.318C289.777 224.14 289.498 224.054 289.205 224.06C288.921 224.06 288.633 224.158 288.341 224.353L285.124 226.508L288.939 229.064L287.823 229.812ZM284.114 225.832L286.653 224.131C287.264 223.721 287.588 223.309 287.623 222.893C287.659 222.466 287.411 222.074 286.879 221.718L286.786 221.655C286.254 221.299 285.678 221.133 285.058 221.157C284.428 221.174 283.804 221.391 283.183 221.807L280.644 223.507L284.114 225.832ZM295.477 224.684L289.044 216.527L291.011 215.209L303.187 219.519L302.031 220.294L298.96 219.199L294.999 221.852L296.634 223.909L295.477 224.684ZM294.268 220.989L297.658 218.718L290.798 216.26L290.612 216.385L294.268 220.989Z" fill="white"/>
<path d="M351.16 187.63C350.106 188.337 348.954 188.693 347.704 188.699C346.455 188.693 345.205 188.272 343.956 187.435L341.776 185.974C340.535 185.143 339.91 184.309 339.901 183.472C339.901 182.629 340.429 181.854 341.483 181.148C342.547 180.435 343.703 180.082 344.953 180.088C346.211 180.088 347.461 180.504 348.701 181.335L350.881 182.795C352.131 183.632 352.756 184.472 352.756 185.315C352.756 186.146 352.224 186.918 351.16 187.63ZM350.19 186.98C350.988 186.446 351.347 185.885 351.267 185.297C351.187 184.71 350.717 184.128 349.858 183.552L347.558 182.011C346.698 181.436 345.83 181.127 344.953 181.085C344.066 181.038 343.233 181.275 342.454 181.798C341.674 182.32 341.319 182.878 341.39 183.472C341.47 184.06 341.935 184.638 342.786 185.208L345.086 186.749C345.954 187.331 346.827 187.648 347.704 187.702C348.573 187.749 349.401 187.509 350.19 186.98ZM359.557 182.006C358.839 182.487 358.108 182.834 357.363 183.048C356.619 183.25 355.905 183.318 355.223 183.253C354.541 183.175 353.934 182.959 353.402 182.603L353.256 182.505C352.795 182.196 352.511 181.875 352.405 181.543C352.299 181.21 352.303 180.899 352.418 180.608C352.533 180.305 352.689 180.059 352.884 179.869L352.711 179.753C352.401 179.866 352.037 179.955 351.621 180.02C351.213 180.079 350.788 180.074 350.345 180.002C349.91 179.925 349.494 179.753 349.095 179.486L348.949 179.388C348.444 179.049 348.156 178.667 348.085 178.239C348.014 177.8 348.134 177.346 348.444 176.877C348.754 176.408 349.232 175.956 349.879 175.523C350.535 175.084 351.209 174.763 351.9 174.561C352.6 174.354 353.273 174.276 353.92 174.33C354.567 174.371 355.143 174.561 355.648 174.9L355.795 174.998C356.193 175.265 356.45 175.544 356.566 175.835C356.681 176.126 356.694 176.408 356.606 176.681C356.517 176.954 356.384 177.197 356.207 177.411L356.38 177.527C356.672 177.39 357.04 177.286 357.483 177.215C357.917 177.138 358.378 177.138 358.865 177.215C359.362 177.286 359.84 177.476 360.301 177.785L360.447 177.883C360.979 178.239 361.302 178.646 361.418 179.103C361.524 179.554 361.422 180.032 361.112 180.537C360.802 181.029 360.283 181.519 359.557 182.006ZM358.586 181.356C359.339 180.851 359.787 180.356 359.929 179.869C360.079 179.376 359.876 178.943 359.317 178.569L359.211 178.497C358.653 178.123 358.01 177.984 357.284 178.079C356.557 178.174 355.812 178.477 355.05 178.987C354.297 179.492 353.85 179.987 353.708 180.474C353.566 180.961 353.774 181.391 354.332 181.765L354.439 181.837C354.997 182.211 355.64 182.35 356.366 182.255C357.102 182.154 357.842 181.855 358.586 181.356ZM354.08 178.337C354.789 177.862 355.21 177.402 355.343 176.957C355.476 176.5 355.294 176.105 354.798 175.772L354.691 175.701C354.186 175.363 353.597 175.241 352.923 175.336C352.241 175.425 351.55 175.704 350.85 176.173C350.15 176.642 349.733 177.105 349.6 177.562C349.458 178.014 349.64 178.408 350.145 178.747L350.252 178.818C350.748 179.15 351.337 179.272 352.02 179.183C352.693 179.088 353.38 178.806 354.08 178.337ZM366.177 180.883L358.122 170.251L359.172 169.548L367.227 180.18L366.177 180.883ZM369.143 175.335L368.173 174.685C367.508 174.239 367.091 173.806 366.923 173.384C366.764 172.957 366.772 172.524 366.95 172.084C367.127 171.633 367.419 171.152 367.827 170.642L368.332 170.001C368.607 169.65 368.806 169.315 368.93 168.994C369.046 168.668 369.05 168.356 368.944 168.059C368.828 167.757 368.567 167.469 368.159 167.196L368.106 167.16C367.521 166.768 366.857 166.596 366.112 166.643C365.359 166.685 364.663 166.92 364.025 167.347C363.352 167.798 362.984 168.288 362.922 168.816C362.851 169.339 363.179 169.843 363.906 170.33L364.092 170.455L363.028 171.167L362.855 171.051C362.182 170.6 361.757 170.119 361.579 169.609C361.402 169.098 361.446 168.594 361.712 168.095C361.969 167.59 362.417 167.124 363.055 166.697C363.693 166.269 364.375 165.973 365.102 165.806C365.838 165.634 366.555 165.599 367.255 165.7C367.956 165.8 368.589 166.041 369.156 166.421L369.276 166.501C369.879 166.905 370.26 167.32 370.419 167.748C370.57 168.169 370.557 168.606 370.379 169.057C370.211 169.502 369.932 169.974 369.542 170.473L369.05 171.105C368.74 171.503 368.514 171.856 368.372 172.165C368.23 172.461 368.204 172.74 368.292 173.002C368.381 173.263 368.629 173.53 369.037 173.803L369.263 173.954L374.753 170.277L375.723 170.927L369.143 175.335ZM378.365 169.157L378.032 168.934C377.722 168.727 377.487 168.534 377.328 168.356C377.168 168.178 377.018 167.94 376.876 167.643L374.111 161.036L373.965 160.938L368.435 164.642L367.464 163.992L374.124 159.531L375.4 160.386L378.338 167.323C378.418 167.519 378.511 167.682 378.617 167.812C378.732 167.937 378.905 168.077 379.136 168.231L379.441 168.436L378.365 169.157Z" fill="white"/>
<path d="M359.517 197.368L353.701 193.472L357.365 191.018L358.179 191.563L355.412 193.416L357.082 194.535L359.616 192.838L360.431 193.383L357.897 195.08L359.6 196.221L362.408 194.34L363.222 194.886L359.517 197.368ZM363.775 194.515L362.629 191.354L357.985 190.602L359.015 189.912L362.571 190.536L362.704 190.447L361.781 188.059L362.812 187.369L363.933 190.48L368.652 191.248L367.614 191.944L363.983 191.304L363.85 191.393L364.806 193.825L363.775 194.515ZM369.48 190.694L363.664 186.798L365.974 185.25C366.328 185.013 366.716 184.85 367.137 184.761C367.558 184.664 367.976 184.651 368.392 184.722C368.807 184.785 369.195 184.937 369.555 185.178L369.663 185.25C370.023 185.492 370.25 185.755 370.344 186.041C370.444 186.323 370.424 186.603 370.286 186.881C370.147 187.159 369.904 187.415 369.555 187.649L368.142 188.595L370.377 190.093L369.48 190.694ZM367.328 188.05L368.649 187.165C368.965 186.954 369.134 186.729 369.156 186.492C369.178 186.254 369.045 186.039 368.757 185.846L368.674 185.79C368.38 185.594 368.056 185.503 367.702 185.518C367.347 185.532 367.012 185.646 366.697 185.857L365.376 186.742L367.328 188.05ZM374.282 187.632C374.088 187.762 373.861 187.829 373.601 187.833C373.346 187.833 373.119 187.766 372.92 187.632C372.72 187.499 372.623 187.349 372.629 187.182C372.634 187.007 372.734 186.855 372.928 186.725C373.122 186.595 373.346 186.53 373.601 186.53C373.861 186.527 374.088 186.59 374.282 186.72C374.482 186.853 374.578 187.007 374.573 187.182C374.573 187.352 374.476 187.503 374.282 187.632ZM379.681 183.86L378.884 183.325L379.665 182.802L375.444 179.975L374.663 180.498L373.866 179.964L376.192 178.405C376.967 177.886 377.757 177.621 378.56 177.609C379.369 177.595 380.169 177.853 380.961 178.383L382.049 179.112C382.841 179.643 383.226 180.179 383.204 180.721C383.182 181.255 382.783 181.782 382.008 182.301L379.681 183.86ZM380.554 182.184L381.202 181.75C381.706 181.413 381.952 181.077 381.941 180.743C381.93 180.409 381.673 180.073 381.169 179.736L380.022 178.967C379.513 178.626 379.011 178.454 378.518 178.45C378.025 178.446 377.527 178.613 377.023 178.951L376.375 179.385L380.554 182.184ZM384.926 180.346L380.772 175.337L382.35 174.28L389.819 177.068L388.897 177.686L387.144 177.024L384.868 178.549L385.856 179.723L384.926 180.346ZM384.261 177.842L386.089 176.618L382.184 175.137L382.051 175.226L384.261 177.842ZM391.419 175.997L386.417 172.647L384.631 173.843L383.817 173.298L388.286 170.303L389.101 170.849L387.314 172.045L392.316 175.396L391.419 175.997ZM394.915 173.655L389.1 169.759L392.764 167.304L393.578 167.85L390.811 169.703L392.481 170.822L395.015 169.124L395.829 169.67L393.295 171.367L394.998 172.508L397.807 170.627L398.621 171.172L394.915 173.655Z" fill="white"/>
<rect width="49" height="38.6045" rx="8" transform="matrix(0.83081 -0.556556 0.83081 0.556556 97.2046 236.176)" fill="#D4AF37"/>
<line y1="-0.5" x2="49" y2="-0.5" transform="matrix(0.83081 -0.556556 0.83081 0.556556 107.302 242.939)" stroke="#767676"/>
<line y1="-0.5" x2="49" y2="-0.5" transform="matrix(0.83081 -0.556556 0.83081 0.556556 118.586 250.5)" stroke="#767676"/>
<rect x="0.83081" width="27" height="21.0597" rx="4.5" transform="matrix(0.83081 -0.556556 0.83081 0.556556 113.196 235.57)" fill="#D4AF37" stroke="#767676"/>
</g>
<defs>
<filter id="filter0_dd_677_4" x="182.102" y="-25.6221" width="370.233" height="198.177" filterUnits="userSpaceOnUse" color-interpolation-filters="sRGB">
<feFlood flood-opacity="0" result="BackgroundImageFix"/>
<feColorMatrix in="SourceAlpha" type="matrix" values="0 0 0 0 0 0 0 0 0 0 0 0 0 0 0 0 0 0 127 0" result="hardAlpha"/>
<feMorphology radius="1" operator="dilate" in="SourceAlpha" result="effect1_dropShadow_677_4"/>
<feOffset dy="1"/>
<feGaussianBlur stdDeviation="1.5"/>
<feColorMatrix type="matrix" values="0 0 0 0 0 0 0 0 0 0 0 0 0 0 0 0 0 0 0.15 0"/>
<feBlend mode="normal" in2="BackgroundImageFix" result="effect1_dropShadow_677_4"/>
<feColorMatrix in="SourceAlpha" type="matrix" values="0 0 0 0 0 0 0 0 0 0 0 0 0 0 0 0 0 0 127 0" result="hardAlpha"/>
<feOffset dy="1"/>
<feGaussianBlur stdDeviation="1"/>
<feColorMatrix type="matrix" values="0 0 0 0 0 0 0 0 0 0 0 0 0 0 0 0 0 0 0.3 0"/>
<feBlend mode="normal" in2="effect1_dropShadow_677_4" result="effect2_dropShadow_677_4"/>
<feBlend mode="normal" in="SourceGraphic" in2="effect2_dropShadow_677_4" result="shape"/>
</filter>
<linearGradient id="paint0_linear_677_4" x1="359.353" y1="116.79" x2="0" y2="116.79" gradientUnits="userSpaceOnUse">
<stop stop-color="#9F9F9F"/>
<stop offset="1" stop-color="#0D0D0D"/>
</linearGradient>
<clipPath id="clip0_677_4">
<rect width="359.353" height="233.579" rx="20" transform="matrix(0.83081 -0.556556 0.83081 0.556556 0 200)" fill="white"/>
</clipPath>
</defs>
</svg>
